<svg width="160" height="160" viewBox="0 0 160 160" fill="none" xmlns="http://www.w3.org/2000/svg">
<g clip-path="url(#clip0_167_1891)">
<rect x="24" y="24" width="112" height="112" rx="56" fill="#D6D8EB"/>
<rect x="22" y="67.0005" width="61" height="74" rx="8" transform="rotate(-22.1517 22 67.0005)" fill="#130085"/>
<g filter="url(#filter0_d_167_1891)">
<rect x="52" y="43" width="61" height="71" rx="8" fill="white"/>
</g>
<path fill-rule="evenodd" clip-rule="evenodd" d="M98.4272 97.8362C108.557 89.188 109.758 73.9656 101.11 63.836C92.4614 53.7064 77.239 52.5054 67.1094 61.1536C56.9797 69.8018 55.7788 85.0242 64.427 95.1538C73.0751 105.283 88.2975 106.484 98.4272 97.8362ZM95.4241 94.319C103.611 87.3294 104.582 75.0264 97.5921 66.8394C90.6025 58.6524 78.2994 57.6818 70.1125 64.6714C61.9255 71.661 60.9549 83.9641 67.9445 92.151C74.9341 100.338 87.2371 101.309 95.4241 94.319Z" fill="#D6D8EB"/>
<rect x="97.5264" y="100.343" width="3.96435" height="6.60725" transform="rotate(-40.4891 97.5264 100.343)" fill="#D6D8EB"/>
<path d="M112.395 119.794C113.342 120.904 115.011 121.035 116.121 120.088L117.126 119.23C118.236 118.282 118.367 116.614 117.42 115.504L105.836 101.936L100.811 106.226L112.395 119.794Z" fill="#130085"/>
<path d="M79.9864 83.5775V83.2285C79.9932 82.0309 80.0993 81.0762 80.3046 80.3645C80.5168 79.6528 80.8247 79.0779 81.2285 78.64C81.6323 78.202 82.1181 77.8051 82.6861 77.4492C83.1104 77.1755 83.4902 76.8915 83.8256 76.5972C84.1609 76.3029 84.4278 75.9779 84.6263 75.622C84.8247 75.2593 84.924 74.8555 84.924 74.4107C84.924 73.9385 84.811 73.5245 84.5852 73.1686C84.3594 72.8128 84.0548 72.539 83.6716 72.3474C83.2952 72.1558 82.8778 72.06 82.4192 72.06C81.9744 72.06 81.5536 72.1592 81.1566 72.3577C80.7597 72.5493 80.4346 72.8367 80.1814 73.2199C79.9282 73.5963 79.7914 74.0651 79.7708 74.6263H75.5826C75.6169 73.2576 75.9453 72.1284 76.5681 71.2388C77.1909 70.3423 78.0155 69.675 79.042 69.2371C80.0685 68.7922 81.2011 68.5698 82.4398 68.5698C83.8016 68.5698 85.0061 68.7957 86.0531 69.2473C87.1002 69.6921 87.9214 70.3389 88.5168 71.1874C89.1121 72.036 89.4098 73.0591 89.4098 74.2567C89.4098 75.0574 89.2764 75.7691 89.0095 76.3919C88.7494 77.0078 88.3833 77.5553 87.9111 78.0343C87.4389 78.5065 86.8812 78.9342 86.2379 79.3175C85.6973 79.6391 85.2524 79.9744 84.9034 80.3235C84.5612 80.6725 84.3046 81.0762 84.1335 81.5347C83.9693 81.9933 83.8837 82.5578 83.8769 83.2285V83.5775H79.9864ZM82.0189 90.1472C81.3346 90.1472 80.7494 89.9077 80.2636 89.4287C79.7845 88.9428 79.5484 88.3611 79.5553 87.6836C79.5484 87.0129 79.7845 86.4381 80.2636 85.959C80.7494 85.48 81.3346 85.2405 82.0189 85.2405C82.669 85.2405 83.2405 85.48 83.7332 85.959C84.2259 86.4381 84.4757 87.0129 84.4825 87.6836C84.4757 88.1352 84.3559 88.5493 84.1233 88.9257C83.8974 89.2952 83.5997 89.5929 83.2302 89.8187C82.8607 90.0377 82.4569 90.1472 82.0189 90.1472Z" fill="#130085"/>
</g>
<defs>
<filter id="filter0_d_167_1891" x="48" y="41" width="69" height="79" filterUnits="userSpaceOnUse" color-interpolation-filters="sRGB">
<feFlood flood-opacity="0" result="BackgroundImageFix"/>
<feColorMatrix in="SourceAlpha" type="matrix" values="0 0 0 0 0 0 0 0 0 0 0 0 0 0 0 0 0 0 127 0" result="hardAlpha"/>
<feOffset dy="2"/>
<feGaussianBlur stdDeviation="2"/>
<feComposite in2="hardAlpha" operator="out"/>
<feColorMatrix type="matrix" values="0 0 0 0 0 0 0 0 0 0 0 0 0 0 0 0 0 0 0.16 0"/>
<feBlend mode="normal" in2="BackgroundImageFix" result="effect1_dropShadow_167_1891"/>
<feBlend mode="normal" in="SourceGraphic" in2="effect1_dropShadow_167_1891" result="shape"/>
</filter>
<clipPath id="clip0_167_1891">
<rect width="160" height="160" fill="white"/>
</clipPath>
</defs>
</svg>
